<svg width="20" height="18" viewBox="0 0 20 18" fill="none" xmlns="http://www.w3.org/2000/svg">
<path d="M1.60002 0.600098C0.937283 0.600098 0.400024 1.13736 0.400024 1.8001V16.2001C0.400024 16.8628 0.937283 17.4001 1.60002 17.4001C2.26277 17.4001 2.80002 16.8628 2.80002 16.2001V1.8001C2.80002 1.13736 2.26277 0.600098 1.60002 0.600098Z" fill="#6B7280"/>
<path d="M13.9515 11.7516C13.4829 12.2202 13.4829 12.98 13.9515 13.4486C14.4201 13.9173 15.1799 13.9173 15.6486 13.4486L19.2486 9.84863C19.4736 9.62358 19.6 9.31836 19.6 9.0001C19.6 8.68184 19.4736 8.37661 19.2486 8.15157L15.6486 4.55157C15.1799 4.08294 14.4201 4.08294 13.9515 4.55157C13.4829 5.0202 13.4829 5.78 13.9515 6.24862L15.503 7.8001L6.40002 7.8001C5.73728 7.8001 5.20002 8.33736 5.20002 9.0001C5.20002 9.66284 5.73728 10.2001 6.40002 10.2001H15.503L13.9515 11.7516Z" fill="#6B7280"/>
</svg>
